/* XPM */
static char * bottom_left_active_xpm[] = {
"5 5 3 1",
" 	c None",
".	c #606060",
"+	c #404040",
"+...+",
"+....",
"+....",
"+....",
"+++++"};
