/* XPM */
static char * bottom_active_xpm[] = {
"1 5 3 1",
" 	c None",
".	c #606060",
"+	c #404040",
"+",
".",
".",
".",
"+"};
