/* XPM */
static char * menu_inactive_xpm[] = {
"18 22 2 1",
" 	c None",
".	c #909090",
"                  ",
"                  ",
"..................",
"..................",
"..................",
"..................",
"..................",
"..................",
"..................",
"..................",
"..................",
"..................",
"..................",
"..................",
"..................",
"..................",
"..................",
"..................",
"..................",
"..................",
"                  ",
"                  "};
