/* XPM */
static char * shade_inactive_xpm[] = {
"18 22 3 1",
" 	c None",
".	c #909090",
"+	c #404040",
"                  ",
"..................",
"..................",
"..................",
"..................",
"..................",
"..................",
"..................",
"..................",
".....++++++++.....",
".....++++++++.....",
"..................",
"........++........",
".......++++.......",
"......++++++......",
".....++++++++.....",
"..................",
"..................",
"..................",
"..................",
"..................",
"                  "};
