/* XPM */
static char * close_inactive_xpm[] = {
"18 22 4 1",
" 	c None",
".	c #404040",
"+	c #c0c0c0",
"@	c #909090",
"                  ",
"++++++++++++++++++",
"++++++++++++++++++",
"++++++++++++++++++",
"++++++++++++++++++",
"++++++++++++++++++",
"++++++++++++++++++",
"++++++++++++++++++",
"++++++.++++.++++++",
"+++++...++...+++++",
"++++++......++++++",
"+++++++....+++++++",
"+++++++....+++++++",
"++++++......++++++",
"+++++...++...+++++",
"++++++.++++.++++++",
"++++++++++++++++++",
"++++++++++++++++++",
"++++++++++++++++++",
"@@@@@@@@@@@@@@@@@@",
"@@@@@@@@@@@@@@@@@@",
"                  "};
