/* XPM */
static char * hide_presssed_xpm[] = {
"18 22 3 1",
" 	c None",
".	c #606060",
"+	c #000000",
"                  ",
"..................",
"..................",
"..................",
"..................",
"..................",
"..................",
"..................",
"..................",
"..................",
"..................",
"..................",
"..................",
"..................",
".....++++++++.....",
".....++++++++.....",
"..................",
"..................",
"..................",
"..................",
"..................",
"                  "};
