/* XPM */
static char * menu_pressed_xpm[] = {
"18 22 2 1",
" 	c None",
".	c #606060",
"                  ",
"                  ",
"..................",
"..................",
"..................",
"..................",
"..................",
"..................",
"..................",
"..................",
"..................",
"..................",
"..................",
"..................",
"..................",
"..................",
"..................",
"..................",
"..................",
"..................",
"                  ",
"                  "};
