/* XPM */
static char * menu_active_xpm[] = {
"18 22 2 1",
" 	c None",
".	c #606060",
"                  ",
"                  ",
"..................",
"..................",
"..................",
"..................",
"..................",
"..................",
"..................",
"..................",
"..................",
"..................",
"..................",
"..................",
"..................",
"..................",
"..................",
"..................",
"..................",
"..................",
"                  ",
"                  "};
