/* XPM */
static char * stick_pressed_xpm[] = {
"18 22 3 1",
" 	c None",
".	c #606060",
"+	c #000000",
"                  ",
"..................",
"..................",
"..................",
"..................",
"..................",
"..................",
"..................",
".......++++.......",
"......+....+......",
"......+....+......",
"......+....+......",
"......+....+......",
".......++++.......",
"..................",
"..................",
"..................",
"..................",
"..................",
"..................",
"..................",
"                  "};
