/* XPM */
static char * title_2_inactive_xpm[] = {
"1 22 3 1",
" 	c None",
".	c #909090",
"+	c #707070",
"+",
".",
".",
".",
".",
".",
".",
".",
".",
".",
".",
".",
".",
".",
".",
".",
".",
".",
".",
".",
".",
"+"};
