/* XPM */
static char * top_left_inactive_xpm[] = {
"5 22 3 1",
" 	c None",
".	c #909090",
"+	c #707070",
"+++++",
"+....",
"+....",
"+....",
"+....",
"+....",
"+....",
"+....",
"+....",
"+....",
"+....",
"+....",
"+....",
"+....",
"+....",
"+....",
"+....",
"+....",
"+....",
"+....",
"+....",
"+...+"};
