/* XPM */
static char * top_left_active_xpm[] = {
"5 22 3 1",
" 	c None",
".	c #606060",
"+	c #404040",
"+++++",
"+....",
"+....",
"+....",
"+....",
"+....",
"+....",
"+....",
"+....",
"+....",
"+....",
"+....",
"+....",
"+....",
"+....",
"+....",
"+....",
"+....",
"+....",
"+....",
"+....",
"+...+"};
