/* XPM */
static char * top_right_inactive_xpm[] = {
"5 22 3 1",
" 	c None",
".	c #909090",
"+	c #707070",
"+++++",
"....+",
"....+",
"....+",
"....+",
"....+",
"....+",
"....+",
"....+",
"....+",
"....+",
"....+",
"....+",
"....+",
"....+",
"....+",
"....+",
"....+",
"....+",
"....+",
"....+",
"+...+"};
